<?xml version="1.0" encoding="UTF-8" standalone="no"?>
<!-- Created with Inkscape (http://www.inkscape.org/) -->

<svg
   version="1.1"
   id="svg2"
   xml:space="preserve"
   width="436.21332"
   height="111.54667"
   viewBox="0 0 436.21332 111.54667"
   sodipodi:docname="ucdavis.eps"
   xmlns:inkscape="http://www.inkscape.org/namespaces/inkscape"
   xmlns:sodipodi="http://sodipodi.sourceforge.net/DTD/sodipodi-0.dtd"
   xmlns="http://www.w3.org/2000/svg"
   xmlns:svg="http://www.w3.org/2000/svg"><defs
     id="defs6" /><sodipodi:namedview
     id="namedview4"
     pagecolor="#ffffff"
     bordercolor="#666666"
     borderopacity="1.0"
     inkscape:pageshadow="2"
     inkscape:pageopacity="0.0"
     inkscape:pagecheckerboard="0" /><g
     id="g8"
     inkscape:groupmode="layer"
     inkscape:label="ink_ext_XXXXXX"
     transform="matrix(1.3333333,0,0,-1.3333333,0,111.54667)"><g
       id="g10"
       transform="scale(0.1)"><path
         d="m 2867.57,341.016 52.37,138.554 9.14,-7.859 c 32.15,-26.258 75.76,-48.563 116.95,-49.438 36.82,-0.863 54.83,8.95 49.92,40.09 -3.65,23.278 -29.92,27.371 -46.31,30.61 l -36.03,7.199 c -70.08,13.082 -128.99,56.312 -128.99,138.172 0,123.785 106.72,193.203 214.05,193.203 56.44,0 108.12,-14.348 156.56,-45.844 l -45.47,-122.765 c -24.94,17.96 -62.71,43.238 -110.53,44.992 -15.72,0.593 -51.68,-7.657 -40.15,-44.184 4.96,-15.547 27.26,-22.082 40.95,-25.402 l 40.63,-9.809 c 75.98,-17.676 130.94,-60.918 130.94,-149.281 0,-124.445 -107.39,-186.051 -214.1,-186.051 -62.21,0 -134.3,17.699 -189.93,47.813"
         style="fill:#daae06;fill-opacity:1;fill-rule:nonzero;stroke:none"
         id="path12" /><path
         d="m 2649.27,823.063 h 179.65 V 301.012 h -179.65 v 522.051"
         style="fill:#daae06;fill-opacity:1;fill-rule:nonzero;stroke:none"
         id="path14" /><path
         d="m 2443.22,823.063 h 187.26 L 2439.25,301.012 h -151.91 l -190.57,522.051 h 186.59 l 79.96,-315.016 79.9,315.016"
         style="fill:#daae06;fill-opacity:1;fill-rule:nonzero;stroke:none"
         id="path16" /><path
         d="m 1653.36,301.012 h 189.92 l 14.39,65.554 h 135.57 l 18.01,-65.554 h 189.96 l -177.85,522.051 h -199.18 z m 272.42,371.359 v 0 c 3.32,-22.23 36.01,-181.98 36.01,-181.98 H 1890 l 35.78,181.98"
         style="fill:#daae06;fill-opacity:1;fill-rule:nonzero;stroke:none"
         id="path18" /><path
         d="m 1367.8,450.906 h 12.29 c 60.25,0 104.94,36.157 104.94,104.266 0,73.363 -39.62,114.281 -105.79,114.281 h -11.44 z m -180.78,372.157 h 184.04 c 167.03,0 294.69,-76.696 294.69,-268.555 0,-154.59 -104.07,-253.496 -250.15,-253.496 l -228.58,0.281 v 521.77"
         style="fill:#daae06;fill-opacity:1;fill-rule:nonzero;stroke:none"
         id="path20" /><path
         d="m 1077.67,806.68 9.73,-85.641 c 2.31,-20.359 13.89,-69.144 -0.4,-62.601 -9.01,4.027 -16.37,26.175 -23.74,45.781 -3.74,9.976 -21.54,57.121 -26.2,60.586 -22.47,16.855 -78.58,35.8 -116.533,35.968 -115.125,0.438 -191.277,-84.464 -191.277,-235.132 0,-108.024 51.742,-237.688 183.379,-237.688 47.164,0 137.501,14.852 162.101,81.942 11.08,30.378 21.27,57.347 28.64,49.191 5.43,-6.004 -1.65,-30.32 -4.93,-43.398 -15.52,-62.231 -16.36,-81.063 -21.28,-83.477 -59.47,-29.84 -135.73,-39.672 -202.5,-39.672 -212.222,0 -285.558,123.805 -285.558,247.563 0,214.824 131.972,303.738 336.613,296.015 51.707,-1.922 103.465,-11.133 151.955,-29.437"
         style="fill:#daae06;fill-opacity:1;fill-rule:nonzero;stroke:none"
         id="path22" /><path
         d="m 450.895,797.168 -33.95,11.855 c -11.453,10.278 2.453,13.129 2.453,13.129 0,0 49.122,-9.086 171.532,1.243 0,0 10.633,-2.086 3.246,-10.719 l -40.113,-17.188 c -26.168,-11.414 -26.168,-4.863 -26.168,-33.523 l -0.223,-266.047 c 0,-208.07 -211.684,-203.379 -252.942,-203.379 -19.617,0 -212.2144,0 -212.2144,167.035 v 281.598 c 0,49.121 5.2344,47.789 -11.0859,53.566 L 2.30859,813.176 c 0,0 -8.28125,11.758 6.51563,11.004 40.12498,-2.028 98.26178,-10.645 233.34378,-0.785 0,0 11.852,-2.872 4.074,-11.465 l -39.273,-11.489 c -31.117,-13.933 -26.996,-3.273 -27.836,-35.203 l 0.961,-277.675 c 0,-68.11 35.043,-152.375 143.746,-152.375 150.023,0 151.426,129.722 151.426,158.558 l 0.257,275.102 c 1.602,25.89 -1.66,18.5 -24.628,28.32"
         style="fill:#daae06;fill-opacity:1;fill-rule:nonzero;stroke:none"
         id="path24" /><path
         d="M 3263.86,237.938 H 45.3711 V 220.469 H 3263.86 v 17.469"
         style="fill:#daae06;fill-opacity:1;fill-rule:nonzero;stroke:none"
         id="path26" /><path
         d="m 49.9609,150.609 h 14.2149 c 6.3281,0 6.9101,-9.156 6.9101,-34.015 V 63.043 C 71.0859,37.6289 73.668,0 131.398,0 c 37.454,0 61.047,22.6563 61.047,59.8398 v 85.9732 c 0,3.64 2.696,4.796 5.504,4.796 h 8.946 v 7.282 h -44.118 v -7.282 h 12.746 c 7.286,0 7.79,-14.254 7.79,-25.3 V 67.2461 c 0,-18.9922 -0.739,-57.35157 -50.653,-57.35157 -17.742,0 -41.0623,9.85157 -41.0623,45.39847 v 91.562 c 0,2.11 0.8789,3.754 3.6093,3.754 h 10.879 v 7.282 H 49.9609 Z m 209.1521,7.282 h -34.992 v -7.282 h 7.387 c 11.457,0 13.57,-8.214 13.57,-27.714 V 16.6484 c 0,-3.582 -2.637,-4.8789 -5.504,-4.8789 h -8.957 V 4.61719 h 44.129 v 7.15231 h -12.73 c -7.278,0 -7.778,14.2852 -7.778,25.3868 v 97.2847 h 0.5 L 359.367,8.42969 362.148,5.14844 c 1.774,-2.00391 2.692,-2.73828 3.411,-2.73828 1.777,0 1.98,1.68359 1.98,3.78906 V 145.813 c 0,3.64 2.598,4.796 5.563,4.796 h 8.875 v 7.282 h -44.114 v -7.282 h 12.762 c 7.254,0 7.633,-14.254 7.633,-25.3 V 38.4063 h -0.379 z m 186.641,-11.036 c 0,2.11 0.891,3.754 3.582,3.754 h 10.879 v 7.282 h -56.016 v -7.282 h 14.258 c 6.27,0 6.793,-9.156 6.793,-34.015 V 15.6758 c 0,-2.1914 -1.027,-3.9063 -3.711,-3.9063 H 410.188 V 4.61719 h 55.98 v 7.15231 h -13.617 c -6.317,0 -6.797,9.2461 -6.797,34.0469 z m 184.187,11.036 h -45.976 v -7.282 h 13.867 c 4.176,0 6.074,-0.668 6.074,-4.101 0,-9.082 -11.168,-36.953 -42.023,-112.0549 -30.926,75.1019 -47.887,112.5509 -47.887,114.6679 0,1.488 1.039,1.488 2.543,1.488 h 13.012 v 7.282 H 477.34 v -7.282 h 5.805 c 7.96,0 9.328,-0.89 17.64,-20.57 L 551.984,6.19922 C 553.652,1.92578 554.355,0 556.086,0 c 2.383,0 3.191,3.14453 5.266,8.42969 L 616.465,147.945 c 0.996,2.664 1.348,2.664 2.894,2.664 h 10.582 z M 661.004,15.6758 c 0,-2.1914 -0.895,-3.9063 -3.606,-3.9063 H 646.125 V 4.61719 h 114.926 c 2.867,9.62111 5.965,19.35941 5.965,21.43751 0,1.1914 -0.871,2.6055 -1.879,2.6055 -1.672,0 -2.188,-1.4141 -2.789,-2.6055 -4.168,-6.6914 -13.653,-12.8008 -54.614,-12.8008 h -16.152 c -7.348,0 -9.965,0 -9.965,29.9219 v 41.3125 h 30.391 c 27.527,0 29.883,-0.2578 29.883,-6.7383 v -8.4531 h 6.589 v 40.7851 h -6.589 v -9.422 c 0,-7.2225 -7.426,-8.2772 -32.258,-8.2772 h -28.016 v 52.4302 c 0,2.433 1.215,4.308 4.805,4.308 h 23.719 c 38.179,0 42.254,-6.461 42.937,-9.297 0.481,-3.258 0.891,-4.394 2.856,-4.394 2.246,0.508 3.015,1.136 5.117,22.461 H 640.09 v -7.282 h 14.211 c 6.293,0 6.703,-9.156 6.703,-34.015 z m 164.719,65.6406 v 64.4966 c 0,3.152 3.382,3.308 5.507,3.308 h 12.418 c 19.059,0 36.192,-13.887 36.192,-36.57 0,-23.7229 -21.262,-31.2346 -42.055,-31.2346 z M 805.195,15.6758 c 0,-2.1914 -0.992,-3.9063 -3.578,-3.9063 H 790.266 V 4.61719 h 55.98 v 7.15231 h -13.75 c -6.277,0 -6.773,9.2461 -6.773,34.0469 v 28.2539 h 17.925 C 887.813,4.72656 890.508,4.61719 896.055,4.61719 h 27.707 v 7.15231 h -6.051 c -6.984,0 -15.176,7.9766 -55.004,65.75 21.199,3.7969 37.641,17.1719 37.641,38.8825 0,30.602 -27.321,41.489 -48.493,41.489 h -67.613 v -7.282 h 14.196 c 6.347,0 6.757,-9.156 6.757,-34.015 z M 984.676,153.773 c 7.664,0 27.164,-2.66 28.884,-13.074 0.28,-1.679 0.6,-3.574 2.87,-3.574 1.94,0 2.73,1.508 2.73,3.207 0,5.723 -0.45,11.695 -0.79,17.559 -7.71,3.601 -17.07,4.632 -27.253,4.632 -25.808,0 -54.765,-15.277 -54.765,-44.261 0,-29.4339 29.492,-38.8362 40.351,-42.7386 23.877,-8.6484 37.867,-16.8554 37.867,-35.4453 0,-21.7578 -19.843,-31.36716 -39.183,-31.36716 -11.77,0 -34.262,5.01956 -37.66,18.53516 -0.411,2.207 -1.086,4.6406 -3.575,4.6406 -1.882,0 -2.922,-1.2617 -2.922,-2.9609 0,-2.1797 1.04,-7.1953 3.606,-22.12892 C 946.004,2.41016 960.742,0 972.496,0 c 39.854,0 58.184,26.25 58.184,47.3242 0,25.8555 -14.62,35.7617 -45.578,47.0899 -15.309,5.7419 -33.309,12.0389 -33.309,31.6639 0,17.844 16.723,27.695 32.883,27.695 m 104.034,-6.918 c 0,2.11 0.85,3.754 3.6,3.754 h 10.83 v 7.282 h -55.96 v -7.282 h 14.22 c 6.23,0 6.76,-9.156 6.76,-34.015 V 15.6758 c 0,-2.1914 -1,-3.9063 -3.58,-3.9063 h -11.35 V 4.61719 h 56 v 7.15231 h -13.87 c -6.28,0 -6.65,9.2461 -6.65,34.0469 z m 113.7,2.266 h 6.04 c 28.25,0 41.98,-4.976 44.35,-12.297 0.5,-1.394 1.54,-3.39 3.41,-3.39 1.49,0 2.7,0.804 2.7,2.504 0,1.488 -3.4,12.007 -6.81,21.953 h -119.96 c -3.27,-9.946 -6.74,-20.465 -6.74,-21.953 0,-1.7 1.15,-2.504 2.64,-2.504 1.94,0 2.9,1.996 3.41,3.39 2.36,7.321 16.16,12.297 44.3,12.297 h 6.12 V 15.6758 c 0,-2.1914 -0.89,-3.9063 -3.59,-3.9063 h -18.15 V 4.61719 h 67.57 v 7.15231 h -18.53 c -6.27,0 -6.76,9.2461 -6.76,34.0469 z m 146.06,-77.9726 39.58,72.2496 c 1.68,3.11 2.89,7.211 6.76,7.211 h 8.5 v 7.282 h -44 v -7.282 h 14.09 c 2.76,0 4.79,-0.195 4.79,-2.89 0,-4.61 -3.43,-11.61 -33.11,-67.4495 -18.16,32.0005 -38.84,67.1875 -38.84,69.4495 0,0.89 2.19,0.89 3.85,0.89 h 11.1 v 7.282 h -54.32 v -7.282 h 8.17 c 4.18,0 5.37,-0.195 7.97,-3.605 8.96,-11.363 17.17,-28.016 44.95,-76.5196 V 15.6758 c 0,-2.1914 -1.04,-3.9063 -3.58,-3.9063 h -11.37 V 4.61719 h 55.98 v 7.15231 h -13.85 c -6.27,0 -6.67,9.2461 -6.67,34.0469 z M 1556.57,0 c 47.94,0 80.38,37.9805 80.38,83.5234 0,47.0396 -27.6,78.9996 -76.14,78.9996 -48.02,0 -80.39,-37.968 -80.39,-83.6011 C 1480.42,31.8867 1507.99,0 1556.57,0 m -1.03,154.492 c 28.53,0 60.89,-23.16 60.89,-77.7615 0,-43.8985 -22.01,-68.80862 -54.63,-68.80862 -28.46,0 -60.84,23.17192 -60.84,77.84372 0,43.8864 22.03,68.7264 54.58,68.7264 m 98.55,-3.883 h 14.25 c 6.3,0 6.85,-9.156 6.85,-34.015 V 15.6758 c 0,-2.1914 -0.94,-3.9063 -3.67,-3.9063 h -11.33 V 4.61719 h 56.03 v 7.15231 h -13.78 c -6.27,0 -6.76,9.2461 -6.76,34.0469 v 38.6719 h 30.48 c 27.51,0 29.87,-0.2578 29.87,-6.7383 v -8.4531 h 6.41 v 40.7851 h -6.41 v -9.422 c 0,-7.2225 -7.48,-8.2772 -32.34,-8.2772 h -28.01 v 52.4302 c 0,2.433 1.21,4.308 4.76,4.308 h 23.7 c 38.2,0 42.26,-6.461 43.02,-9.297 0.47,-3.258 0.88,-4.394 2.91,-4.394 2.07,0.508 2.93,1.136 4.98,22.461 h -120.96 z m 344.99,3.653 c -12.95,5.078 -26.82,8.261 -41.41,8.261 -50.31,0 -93.49,-35.293 -93.49,-87.1558 C 1864.18,25.1289 1897.77,0 1945.8,0 c 18.59,0 39.33,4.30859 55.43,12.2461 1.05,15.293 1.54,18.8477 1.54,21.0937 0,1.418 -0.49,3.1446 -2.38,3.1446 -2.7,0 -2.99,-2.461 -3.19,-4.375 -1.68,-13.5469 -25.54,-23.39846 -47.38,-23.39846 -29.86,0 -63.67,24.37496 -63.67,69.24996 0,42.0271 25.66,75.8121 69.98,75.8121 14.53,0 34.59,-6.527 35.78,-15.14 0.53,-3.645 0.68,-4.711 2.79,-4.711 2.5,0 2.7,0.789 4.38,20.34 m 111.38,-92.2698 c 9.95,-29.1602 16.68,-46.0469 16.68,-47.7539 0,-1.7266 -1.7,-2.4688 -3.51,-2.4688 h -12.91 V 4.61719 h 53.96 v 7.15231 h -7.13 c -6.27,0 -9.14,3.4336 -14.66,18.6602 -11.86,32.0898 -41.82,112.6793 -41.82,123.0933 0,4.614 4.2,4.368 4.2,7.551 0,1.68 -1.02,2.418 -2.4,2.418 -1.37,0 -8.17,-1.75 -14.18,-3.176 l -61.1,-144.6402 c -1.4,-3.1641 -4.94,-3.9063 -8.55,-3.9063 h -4.9 V 4.61719 h 48.84 v 7.15231 h -15.31 c -3.53,0 -6.05,1.2969 -6.05,6.25 0,6.8047 8.71,30.4102 14,43.9727 z m -3.34,8.7734 h -48.1 l 26.72,64.2224 z m 124.3,87.1254 h -56.05 v -7.282 h 14.25 c 6.27,0 6.74,-9.156 6.74,-34.015 V 15.6758 c 0,-2.1914 -0.9,-3.9063 -3.57,-3.9063 h -11.33 V 4.61719 h 114.86 c 2.87,9.62111 6,19.35941 6,21.43751 0,1.1914 -0.96,2.6055 -1.89,2.6055 -1.74,0 -2.17,-1.4141 -2.82,-2.6055 -4.16,-6.6914 -13.65,-12.8008 -54.57,-12.8008 h -16.13 c -7.38,0 -10,0 -10,29.9219 V 146.855 c 0,2.11 0.96,3.754 3.65,3.754 h 10.86 z m 122.33,-11.036 c 0,2.11 1.01,3.754 3.63,3.754 h 11.01 v 7.282 h -56.11 v -7.282 h 14.26 c 6.33,0 6.78,-9.156 6.78,-34.015 V 15.6758 c 0,-2.1914 -1.04,-3.9063 -3.7,-3.9063 h -11.23 V 4.61719 h 55.98 v 7.15231 h -13.77 c -6.25,0 -6.85,9.2461 -6.85,34.0469 z m 44.19,3.754 h 14.28 c 6.27,0 6.68,-9.156 6.68,-34.015 V 15.6758 c 0,-2.1914 -0.9,-3.9063 -3.53,-3.9063 h -11.35 V 4.61719 h 56.05 v 7.15231 h -13.8 c -6.31,0 -6.74,9.2461 -6.74,34.0469 v 38.6719 h 30.37 c 27.58,0 29.88,-0.2578 29.88,-6.7383 v -8.4531 h 6.62 v 40.7851 h -6.62 v -9.422 c 0,-7.2225 -7.34,-8.2772 -32.25,-8.2772 h -28 v 52.4302 c 0,2.433 1.17,4.308 4.8,4.308 h 23.69 c 38.03,0 42.23,-6.461 42.99,-9.297 0.47,-3.258 0.9,-4.394 2.87,-4.394 2.17,0.508 2.83,1.136 5,22.461 H 2397.94 Z M 2609.53,0 c 48.02,0 80.43,37.9805 80.43,83.5234 0,47.0396 -27.56,78.9996 -76.19,78.9996 -48.01,0 -80.34,-37.968 -80.34,-83.6011 C 2533.43,31.8867 2560.99,0 2609.53,0 m -0.98,154.492 c 28.48,0 60.88,-23.16 60.88,-77.7615 0,-43.8985 -22.01,-68.80862 -54.63,-68.80862 -28.52,0 -60.78,23.17192 -60.78,77.84372 0,43.8864 21.89,68.7264 54.53,68.7264 m 139.02,-73.1756 v 64.4966 c 0,3.152 3.34,3.308 5.59,3.308 h 12.28 c 18.95,0 36.14,-13.887 36.14,-36.57 0,-23.7229 -21.29,-31.2346 -41.96,-31.2346 z m -20.52,-65.6406 c 0,-2.1914 -0.98,-3.9063 -3.64,-3.9063 h -11.29 V 4.61719 h 55.9 v 7.15231 h -13.79 c -6.19,0 -6.66,9.2461 -6.66,34.0469 v 28.2539 h 17.87 c 44.15,-69.34374 46.8,-69.45311 52.35,-69.45311 h 27.85 v 7.15231 h -6.05 c -7.11,0 -15.26,7.9766 -55.2,65.75 21.39,3.7969 37.85,17.1719 37.85,38.8825 0,30.602 -27.46,41.489 -48.61,41.489 h -67.62 v -7.282 h 14.26 c 6.27,0 6.78,-9.156 6.78,-34.015 z m 160.33,142.2152 h -35.12 v -7.282 h 7.48 c 11.51,0 13.58,-8.214 13.58,-27.714 V 16.6484 c 0,-3.582 -2.7,-4.8789 -5.47,-4.8789 h -8.97 V 4.61719 h 44.16 v 7.15231 h -12.79 c -7.25,0 -7.77,14.2852 -7.77,25.3868 v 97.2847 h 0.52 l 104.52,-126.01131 2.91,-3.28125 c 1.68,-2.00391 2.65,-2.73828 3.35,-2.73828 1.76,0 2.02,1.68359 2.02,3.78906 V 145.813 c 0,3.64 2.57,4.796 5.48,4.796 h 8.99 v 7.282 h -44.16 v -7.282 h 12.79 c 7.17,0 7.64,-14.254 7.64,-25.3 V 38.4063 h -0.47 z m 186.64,-11.036 c 0,2.11 0.94,3.754 3.57,3.754 h 10.84 v 7.282 h -55.99 v -7.282 h 14.27 c 6.31,0 6.74,-9.156 6.74,-34.015 V 15.6758 c 0,-2.1914 -0.93,-3.9063 -3.65,-3.9063 h -11.35 V 4.61719 h 56 v 7.15231 h -13.65 c -6.35,0 -6.78,9.2461 -6.78,34.0469 z m 130.86,-84.8628 c 9.94,-29.1602 16.52,-46.0469 16.52,-47.7539 0,-1.7266 -1.66,-2.4688 -3.3,-2.4688 h -12.99 V 4.61719 h 53.99 v 7.15231 h -7.17 c -6.29,0 -9.16,3.4336 -14.79,18.6602 -11.83,32.0898 -41.66,112.6793 -41.66,123.0933 0,4.614 4.2,4.368 4.2,7.551 0,1.68 -1.15,2.418 -2.36,2.418 -1.37,0 -8.2,-1.75 -14.22,-3.176 L 3121.99,15.6758 c -1.41,-3.1641 -4.96,-3.9063 -8.69,-3.9063 h -4.81 V 4.61719 h 48.79 v 7.15231 h -15.12 c -3.69,0 -6.17,1.2969 -6.17,6.25 0,6.8047 8.75,30.4102 13.93,43.9727 z m -3.46,8.7734 h -48.05 l 26.8,64.2224 z"
         style="fill:#114781;fill-opacity:1;fill-rule:nonzero;stroke:none"
         id="path28" /></g></g></svg>
